TITLE ""
FILE "Step2_Track56.mp3" MP3
  TRACK 01 AUDIO
    TITLE "Step2_Track56_01"
    INDEX 01 00:00:00
  TRACK 02 AUDIO
    TITLE "Step2_Track56_02"
    INDEX 01 00:00:24
  TRACK 03 AUDIO
    TITLE "Step2_Track56_03"
    INDEX 01 00:02:07
  TRACK 04 AUDIO
    TITLE "Step2_Track56_04"
    INDEX 01 00:02:62
  TRACK 05 AUDIO
    TITLE "Step2_Track56_05"
    INDEX 01 00:03:62
  TRACK 06 AUDIO
    TITLE "Step2_Track56_06"
    INDEX 01 00:04:02
  TRACK 07 AUDIO
    TITLE "Step2_Track56_07"
    INDEX 01 00:05:66
  TRACK 08 AUDIO
    TITLE "Step2_Track56_08"
    INDEX 01 00:06:19
  TRACK 09 AUDIO
    TITLE "Step2_Track56_09"
    INDEX 01 00:07:16
  TRACK 10 AUDIO
    TITLE "Step2_Track56_10"
    INDEX 01 00:07:26
  TRACK 11 AUDIO
    TITLE "Step2_Track56_11"
    INDEX 01 00:09:29
  TRACK 12 AUDIO
    TITLE "Step2_Track56_12"
    INDEX 01 00:09:54
  TRACK 13 AUDIO
    TITLE "Step2_Track56_13"
    INDEX 01 00:10:48
  TRACK 14 AUDIO
    TITLE "Step2_Track56_14"
    INDEX 01 00:10:58
  TRACK 15 AUDIO
    TITLE "Step2_Track56_15"
    INDEX 01 00:12:61
  TRACK 16 AUDIO
    TITLE "Step2_Track56_16"
    INDEX 01 00:13:09
  TRACK 17 AUDIO
    TITLE "Step2_Track56_17"
    INDEX 01 00:14:07
  TRACK 18 AUDIO
    TITLE "Step2_Track56_18"
    INDEX 01 00:14:08
  TRACK 19 AUDIO
    TITLE "Step2_Track56_19"
    INDEX 01 00:16:07
  TRACK 20 AUDIO
    TITLE "Step2_Track56_20"
    INDEX 01 00:16:35
  TRACK 21 AUDIO
    TITLE "Step2_Track56_21"
    INDEX 01 00:17:28
  TRACK 22 AUDIO
    TITLE "Step2_Track56_22"
    INDEX 01 00:17:36
  TRACK 23 AUDIO
    TITLE "Step2_Track56_23"
    INDEX 01 00:19:12
  TRACK 24 AUDIO
    TITLE "Step2_Track56_24"
    INDEX 01 00:19:33
  TRACK 25 AUDIO
    TITLE "Step2_Track56_25"
    INDEX 01 00:20:33
  TRACK 26 AUDIO
    TITLE "Step2_Track56_26"
    INDEX 01 00:20:35
  TRACK 27 AUDIO
    TITLE "Step2_Track56_27"
    INDEX 01 00:22:18
  TRACK 28 AUDIO
    TITLE "Step2_Track56_28"
    INDEX 01 00:22:30
  TRACK 29 AUDIO
    TITLE "Step2_Track56_29"
    INDEX 01 00:23:37
  TRACK 30 AUDIO
    TITLE "Step2_Track56_30"
    INDEX 01 00:23:45
  TRACK 31 AUDIO
    TITLE "Step2_Track56_31"
    INDEX 01 00:25:30
  TRACK 32 AUDIO
    TITLE "Step2_Track56_32"
    INDEX 01 00:25:47
  TRACK 33 AUDIO
    TITLE "Step2_Track56_33"
    INDEX 01 00:26:37
  TRACK 34 AUDIO
    TITLE "Step2_Track56_34"
    INDEX 01 00:26:45
  TRACK 35 AUDIO
    TITLE "Step2_Track56_35"
    INDEX 01 00:28:13
  TRACK 36 AUDIO
    TITLE "Step2_Track56_36"
    INDEX 01 00:28:52
  TRACK 37 AUDIO
    TITLE "Step2_Track56_37"
    INDEX 01 00:29:55
  TRACK 38 AUDIO
    TITLE "Step2_Track56_38"
    INDEX 01 00:29:69
  TRACK 39 AUDIO
    TITLE "Step2_Track56_39"
    INDEX 01 00:31:50
  TRACK 40 AUDIO
    TITLE "Step2_Track56_40"
    INDEX 01 00:32:01
  TRACK 41 AUDIO
    TITLE "Step2_Track56_41"
    INDEX 01 00:32:73
  TRACK 42 AUDIO
    TITLE "Step2_Track56_42"
    INDEX 01 00:33:10
  TRACK 43 AUDIO
    TITLE "Step2_Track56_43"
    INDEX 01 00:35:01
